# xmcd
#
# Track frame offsets: 
#        150
#        14738
#        27343
#        40975
#        55900
#        67580
#        78562
#        95100
#        111883
#        125717
#        146830
#        161025
#        197308
#        211178
#
# Disc length: 2990 seconds
#
# Revision: 0
# Processed by: cddbd v1.5.2PL0 Copyright (c) Steve Scherf et al.
# Submitted via: ExactAudioCopy v0.95b4
#
DISCID=c70bac0e
DTITLE=Claire Lynch - Crowd Favorites
DYEAR=2007
DGENRE=Bluegrass
TTITLE0=Train Long Gone
TTITLE1=The Day That Lester Died
TTITLE2=Fallin' In Love
TTITLE3=Hills of Alabam'
TTITLE4=If Wishes Were Horses
TTITLE5=Your Presense Is My Favorite Gift
TTITLE6=Jealousy
TTITLE7=Silver and Gold
TTITLE8=Sweetheart, Darlin' of Mine
TTITLE9=Kennesaw Line
TTITLE10=Thibodaux
TTITLE11=Wabash Cannonball
TTITLE12=He Don't Like to Talk About It
TTITLE13=Friends for a Lifetime
EXTD=
EXTT0=
EXTT1=
EXTT2=
EXTT3=
EXTT4=
EXTT5=
EXTT6=
EXTT7=
EXTT8=
EXTT9=
EXTT10=
EXTT11=
EXTT12=
EXTT13=
PLAYORDER=
